# xmcd
#
# Track frame offsets:
#	150
#	13839
#	28484
#	43105
#	55395
#	68271
#	80560
#	93560
#	105921
#	117589
#	127738
#	141737
#	147946
#	161901
#	173994
#	189375
#	198263
#	209227
#	215754
#	236271
#	249434
#	262525
#	268278
#	278122
#	291599
#
# Disc length: 4074 seconds
#
# Revision: 2
# Processed by: cddbd v1.5.1PL0 Copyright (c) Steve Scherf et al.
# Submitted via: EasyCDDAExtractor 7.5.0.1
#
DISCID=890fe819
DTITLE=Various Artist - Kentucky Mountain Music (Classic Recordings Of The 19
DTITLE=20s and 30s) - Disc 4
DYEAR=2003
DGENRE=Bluegrass
TTITLE0=Blue Ridge Mountaineers - Old Flannigan
TTITLE1=Burnett and Rutherford - Willie Moore
TTITLE2=J. W. Day - The Wild Wagoner
TTITLE3=Asa Martin - My Cabin Home Among The Hills
TTITLE4=Ted Gossett's Band - Bow Legged Irishman
TTITLE5=Rutherford and Foster - There's No One Like The Old Folks
TTITLE6=Jimmy Johnson's String Band - Old Blind Dog
TTITLE7=Buell Kazee - The Sporting Bachelors
TTITLE8=Taylor's Kentucky Boys - Sourwood Mountain
TTITLE9=Justis Begley - The Roving Boy
TTITLE10=Crockett Family Mountaineers - Medley Of Old Time Dance Tunes Part 2
TTITLE11=Pete Steele - Lack Fol Diddle I Day
TTITLE12=Burnett and Rutherford - Lost John
TTITLE13=Rutherford and Foster - There's More Pretty Girls Than One
TTITLE14=Walter Family - Shaker Ben
TTITLE15=Rev. Sherwin Sizemore and Church Of The Ten Elders - Jesus Walking Thro
TTITLE15=ugh The Land
TTITLE16=Green's String Band - Pickaway
TTITLE17=Daw Henson - Wallins Creek Girls
TTITLE18=Ed Morrison - We'll All Go to Heaven When the Devil Goes Blind
TTITLE19=Walter Williams - John Hardy
TTITLE20=Hack's String Band - Wink The Other Eye
TTITLE21=Boyd Asher - Hickory Jack
TTITLE22=J. M. Mullins - Working's Too Hard
TTITLE23=Henry L. Bandy - Sail Away Ladies
TTITLE24=Kentucky Mountain Chorusters - The Great Reaping Day
EXTD=
EXTT0=
EXTT1=
EXTT2=
EXTT3=
EXTT4=
EXTT5=
EXTT6=
EXTT7=
EXTT8=
EXTT9=
EXTT10=
EXTT11=
EXTT12=
EXTT13=
EXTT14=
EXTT15=
EXTT16=
EXTT17=
EXTT18=
EXTT19=
EXTT20=
EXTT21=
EXTT22=
EXTT23=
EXTT24=
PLAYORDER=
